<mxfile host="app.diagrams.net" modified="2023-10-17T07:20:51.586Z" agent="Mozilla/5.0 (Windows NT 10.0; Win64; x64) AppleWebKit/537.36 (KHTML, like Gecko) Chrome/118.0.0.0 Safari/537.36 Edg/118.0.2088.46" etag="uM3bEGOMff_VjU8qv0JM" version="22.0.4" type="device">
  <diagram name="Página-1" id="AMBotxEXfEVGz0jdMbNU">
    <mxGraphModel dx="1236" dy="785" grid="1" gridSize="10" guides="1" tooltips="1" connect="1" arrows="1" fold="1" page="1" pageScale="1" pageWidth="827" pageHeight="1169" math="0" shadow="0">
      <root>
        <mxCell id="0" />
        <mxCell id="1" parent="0" />
        <mxCell id="F3-806QNRaQVextch-wQ-42" style="edgeStyle=orthogonalEdgeStyle;rounded=0;orthogonalLoop=1;jettySize=auto;html=1;exitX=1;exitY=0.5;exitDx=0;exitDy=0;entryX=0.5;entryY=0;entryDx=0;entryDy=0;" edge="1" parent="1" source="0Ur8XQEVysBqUbg25kou-1" target="dGLbKsDwyPdyKZs4tSeU-28">
          <mxGeometry relative="1" as="geometry" />
        </mxCell>
        <mxCell id="F3-806QNRaQVextch-wQ-44" style="edgeStyle=orthogonalEdgeStyle;rounded=0;orthogonalLoop=1;jettySize=auto;html=1;exitX=0;exitY=0.25;exitDx=0;exitDy=0;entryX=1;entryY=0.5;entryDx=0;entryDy=0;" edge="1" parent="1" source="0Ur8XQEVysBqUbg25kou-1" target="dGLbKsDwyPdyKZs4tSeU-8">
          <mxGeometry relative="1" as="geometry" />
        </mxCell>
        <mxCell id="0Ur8XQEVysBqUbg25kou-1" value="Departamento" style="rounded=0;whiteSpace=wrap;html=1;" parent="1" vertex="1">
          <mxGeometry x="240" y="70" width="210" height="130" as="geometry" />
        </mxCell>
        <mxCell id="F3-806QNRaQVextch-wQ-20" style="edgeStyle=orthogonalEdgeStyle;rounded=0;orthogonalLoop=1;jettySize=auto;html=1;exitX=1;exitY=0.5;exitDx=0;exitDy=0;entryX=0.5;entryY=1;entryDx=0;entryDy=0;" edge="1" parent="1" target="F3-806QNRaQVextch-wQ-19">
          <mxGeometry relative="1" as="geometry">
            <mxPoint x="295" y="480" as="sourcePoint" />
          </mxGeometry>
        </mxCell>
        <mxCell id="dGLbKsDwyPdyKZs4tSeU-6" value="&lt;span style=&quot;border-bottom: 1px dotted&quot;&gt;Dirección&lt;/span&gt;" style="ellipse;whiteSpace=wrap;html=1;align=center;" parent="1" vertex="1">
          <mxGeometry x="10" y="490" width="100" height="40" as="geometry" />
        </mxCell>
        <mxCell id="dGLbKsDwyPdyKZs4tSeU-7" value="&lt;span style=&quot;border-bottom: 1px dotted&quot;&gt;Nombre&lt;/span&gt;" style="ellipse;whiteSpace=wrap;html=1;align=center;" parent="1" vertex="1">
          <mxGeometry x="10" y="420" width="100" height="40" as="geometry" />
        </mxCell>
        <mxCell id="dGLbKsDwyPdyKZs4tSeU-8" value="&lt;span style=&quot;border-bottom: 1px dotted&quot;&gt;Nombre&lt;/span&gt;" style="ellipse;whiteSpace=wrap;html=1;align=center;" parent="1" vertex="1">
          <mxGeometry x="10" y="60" width="100" height="40" as="geometry" />
        </mxCell>
        <mxCell id="dGLbKsDwyPdyKZs4tSeU-13" value="&lt;span style=&quot;border-bottom: 1px dotted&quot;&gt;&lt;u&gt;Nº producto&lt;br&gt;Almacen&lt;/u&gt;&lt;br&gt;&lt;/span&gt;" style="ellipse;whiteSpace=wrap;html=1;align=center;" parent="1" vertex="1">
          <mxGeometry x="670" y="340" width="130" height="50" as="geometry" />
        </mxCell>
        <mxCell id="F3-806QNRaQVextch-wQ-16" style="edgeStyle=orthogonalEdgeStyle;rounded=0;orthogonalLoop=1;jettySize=auto;html=1;exitX=1;exitY=0.5;exitDx=0;exitDy=0;entryX=0;entryY=0.5;entryDx=0;entryDy=0;" edge="1" parent="1" source="dGLbKsDwyPdyKZs4tSeU-14" target="dGLbKsDwyPdyKZs4tSeU-13">
          <mxGeometry relative="1" as="geometry" />
        </mxCell>
        <mxCell id="F3-806QNRaQVextch-wQ-50" style="edgeStyle=orthogonalEdgeStyle;rounded=0;orthogonalLoop=1;jettySize=auto;html=1;exitX=0.5;exitY=1;exitDx=0;exitDy=0;entryX=0.5;entryY=0;entryDx=0;entryDy=0;" edge="1" parent="1" source="dGLbKsDwyPdyKZs4tSeU-14" target="F3-806QNRaQVextch-wQ-49">
          <mxGeometry relative="1" as="geometry" />
        </mxCell>
        <mxCell id="F3-806QNRaQVextch-wQ-53" style="edgeStyle=orthogonalEdgeStyle;rounded=0;orthogonalLoop=1;jettySize=auto;html=1;exitX=1;exitY=0;exitDx=0;exitDy=0;entryX=0;entryY=0.5;entryDx=0;entryDy=0;" edge="1" parent="1" source="dGLbKsDwyPdyKZs4tSeU-14" target="F3-806QNRaQVextch-wQ-7">
          <mxGeometry relative="1" as="geometry" />
        </mxCell>
        <mxCell id="F3-806QNRaQVextch-wQ-68" style="edgeStyle=orthogonalEdgeStyle;rounded=0;orthogonalLoop=1;jettySize=auto;html=1;exitX=0.75;exitY=1;exitDx=0;exitDy=0;entryX=0.5;entryY=0;entryDx=0;entryDy=0;" edge="1" parent="1" source="dGLbKsDwyPdyKZs4tSeU-14" target="F3-806QNRaQVextch-wQ-66">
          <mxGeometry relative="1" as="geometry" />
        </mxCell>
        <mxCell id="dGLbKsDwyPdyKZs4tSeU-14" value="Producto" style="shape=ext;margin=3;double=1;whiteSpace=wrap;html=1;align=center;" parent="1" vertex="1">
          <mxGeometry x="470" y="310" width="100" height="40" as="geometry" />
        </mxCell>
        <mxCell id="dGLbKsDwyPdyKZs4tSeU-16" value="Productos" style="ellipse;whiteSpace=wrap;html=1;align=center;" parent="1" vertex="1">
          <mxGeometry x="210" y="670" width="100" height="40" as="geometry" />
        </mxCell>
        <mxCell id="dGLbKsDwyPdyKZs4tSeU-17" value="Dirección" style="ellipse;whiteSpace=wrap;html=1;align=center;" parent="1" vertex="1">
          <mxGeometry x="330" y="690" width="100" height="40" as="geometry" />
        </mxCell>
        <mxCell id="dGLbKsDwyPdyKZs4tSeU-18" value="Precios" style="ellipse;whiteSpace=wrap;html=1;align=center;" parent="1" vertex="1">
          <mxGeometry x="440" y="660" width="100" height="40" as="geometry" />
        </mxCell>
        <mxCell id="dGLbKsDwyPdyKZs4tSeU-32" value="" style="edgeStyle=orthogonalEdgeStyle;rounded=0;orthogonalLoop=1;jettySize=auto;html=1;" parent="1" source="dGLbKsDwyPdyKZs4tSeU-28" target="dGLbKsDwyPdyKZs4tSeU-14" edge="1">
          <mxGeometry relative="1" as="geometry" />
        </mxCell>
        <mxCell id="dGLbKsDwyPdyKZs4tSeU-28" value="Vende" style="shape=rhombus;perimeter=rhombusPerimeter;whiteSpace=wrap;html=1;align=center;" parent="1" vertex="1">
          <mxGeometry x="460" y="160" width="120" height="60" as="geometry" />
        </mxCell>
        <mxCell id="F3-806QNRaQVextch-wQ-1" value="&lt;u&gt;Nº Empleado&lt;/u&gt;" style="ellipse;whiteSpace=wrap;html=1;" vertex="1" parent="1">
          <mxGeometry x="10" y="550" width="110" height="50" as="geometry" />
        </mxCell>
        <mxCell id="F3-806QNRaQVextch-wQ-6" value="Precio" style="ellipse;whiteSpace=wrap;html=1;" vertex="1" parent="1">
          <mxGeometry x="670" y="280" width="100" height="40" as="geometry" />
        </mxCell>
        <mxCell id="F3-806QNRaQVextch-wQ-7" value="Nombre" style="ellipse;whiteSpace=wrap;html=1;" vertex="1" parent="1">
          <mxGeometry x="670" y="212.5" width="100" height="40" as="geometry" />
        </mxCell>
        <mxCell id="F3-806QNRaQVextch-wQ-19" value="Pertenece" style="rhombus;whiteSpace=wrap;html=1;" vertex="1" parent="1">
          <mxGeometry x="330" y="320" width="120" height="60" as="geometry" />
        </mxCell>
        <mxCell id="F3-806QNRaQVextch-wQ-29" style="edgeStyle=orthogonalEdgeStyle;rounded=0;orthogonalLoop=1;jettySize=auto;html=1;exitX=0;exitY=0.5;exitDx=0;exitDy=0;entryX=0.5;entryY=1;entryDx=0;entryDy=0;" edge="1" parent="1" source="F3-806QNRaQVextch-wQ-22" target="F3-806QNRaQVextch-wQ-28">
          <mxGeometry relative="1" as="geometry" />
        </mxCell>
        <mxCell id="F3-806QNRaQVextch-wQ-48" style="edgeStyle=orthogonalEdgeStyle;rounded=0;orthogonalLoop=1;jettySize=auto;html=1;exitX=0.5;exitY=1;exitDx=0;exitDy=0;entryX=0;entryY=0.5;entryDx=0;entryDy=0;" edge="1" parent="1" source="F3-806QNRaQVextch-wQ-22" target="F3-806QNRaQVextch-wQ-23">
          <mxGeometry relative="1" as="geometry" />
        </mxCell>
        <mxCell id="F3-806QNRaQVextch-wQ-22" value="Jefe" style="rounded=0;whiteSpace=wrap;html=1;" vertex="1" parent="1">
          <mxGeometry x="180" y="300" width="120" height="50" as="geometry" />
        </mxCell>
        <mxCell id="F3-806QNRaQVextch-wQ-26" style="edgeStyle=orthogonalEdgeStyle;rounded=0;orthogonalLoop=1;jettySize=auto;html=1;exitX=1;exitY=0.5;exitDx=0;exitDy=0;entryX=0.5;entryY=0;entryDx=0;entryDy=0;" edge="1" parent="1" source="F3-806QNRaQVextch-wQ-23">
          <mxGeometry relative="1" as="geometry">
            <mxPoint x="245" y="460" as="targetPoint" />
          </mxGeometry>
        </mxCell>
        <mxCell id="F3-806QNRaQVextch-wQ-23" value="Is a" style="triangle;whiteSpace=wrap;html=1;direction=south;" vertex="1" parent="1">
          <mxGeometry x="210" y="380" width="70" height="40" as="geometry" />
        </mxCell>
        <mxCell id="F3-806QNRaQVextch-wQ-43" style="edgeStyle=orthogonalEdgeStyle;rounded=0;orthogonalLoop=1;jettySize=auto;html=1;exitX=0.5;exitY=0;exitDx=0;exitDy=0;entryX=0;entryY=0.75;entryDx=0;entryDy=0;" edge="1" parent="1" source="F3-806QNRaQVextch-wQ-28" target="0Ur8XQEVysBqUbg25kou-1">
          <mxGeometry relative="1" as="geometry" />
        </mxCell>
        <mxCell id="F3-806QNRaQVextch-wQ-28" value="Dirige" style="rhombus;whiteSpace=wrap;html=1;" vertex="1" parent="1">
          <mxGeometry x="90" y="190" width="120" height="70" as="geometry" />
        </mxCell>
        <mxCell id="F3-806QNRaQVextch-wQ-34" style="edgeStyle=orthogonalEdgeStyle;rounded=0;orthogonalLoop=1;jettySize=auto;html=1;exitX=1;exitY=0.25;exitDx=0;exitDy=0;entryX=0.04;entryY=0.75;entryDx=0;entryDy=0;entryPerimeter=0;" edge="1" parent="1" source="dGLbKsDwyPdyKZs4tSeU-14" target="F3-806QNRaQVextch-wQ-6">
          <mxGeometry relative="1" as="geometry">
            <Array as="points">
              <mxPoint x="620" y="320" />
              <mxPoint x="620" y="310" />
            </Array>
          </mxGeometry>
        </mxCell>
        <mxCell id="F3-806QNRaQVextch-wQ-45" style="edgeStyle=orthogonalEdgeStyle;rounded=0;orthogonalLoop=1;jettySize=auto;html=1;exitX=0.5;exitY=0;exitDx=0;exitDy=0;entryX=0.71;entryY=0.992;entryDx=0;entryDy=0;entryPerimeter=0;" edge="1" parent="1" source="F3-806QNRaQVextch-wQ-19" target="0Ur8XQEVysBqUbg25kou-1">
          <mxGeometry relative="1" as="geometry" />
        </mxCell>
        <mxCell id="F3-806QNRaQVextch-wQ-62" style="edgeStyle=orthogonalEdgeStyle;rounded=0;orthogonalLoop=1;jettySize=auto;html=1;exitX=0.5;exitY=1;exitDx=0;exitDy=0;" edge="1" parent="1" source="F3-806QNRaQVextch-wQ-49" target="F3-806QNRaQVextch-wQ-55">
          <mxGeometry relative="1" as="geometry" />
        </mxCell>
        <mxCell id="F3-806QNRaQVextch-wQ-49" value="Realizado" style="rhombus;whiteSpace=wrap;html=1;" vertex="1" parent="1">
          <mxGeometry x="465" y="425" width="110" height="50" as="geometry" />
        </mxCell>
        <mxCell id="F3-806QNRaQVextch-wQ-61" style="edgeStyle=orthogonalEdgeStyle;rounded=0;orthogonalLoop=1;jettySize=auto;html=1;exitX=0.75;exitY=1;exitDx=0;exitDy=0;entryX=0.5;entryY=0;entryDx=0;entryDy=0;" edge="1" parent="1" source="F3-806QNRaQVextch-wQ-55" target="dGLbKsDwyPdyKZs4tSeU-18">
          <mxGeometry relative="1" as="geometry" />
        </mxCell>
        <mxCell id="F3-806QNRaQVextch-wQ-55" value="Fabricante" style="rounded=0;whiteSpace=wrap;html=1;" vertex="1" parent="1">
          <mxGeometry x="360" y="530" width="120" height="60" as="geometry" />
        </mxCell>
        <mxCell id="F3-806QNRaQVextch-wQ-63" style="edgeStyle=orthogonalEdgeStyle;rounded=0;orthogonalLoop=1;jettySize=auto;html=1;exitX=0;exitY=0;exitDx=0;exitDy=0;entryX=1;entryY=0.5;entryDx=0;entryDy=0;" edge="1" parent="1" source="F3-806QNRaQVextch-wQ-56" target="dGLbKsDwyPdyKZs4tSeU-7">
          <mxGeometry relative="1" as="geometry" />
        </mxCell>
        <mxCell id="F3-806QNRaQVextch-wQ-56" value="Empleado" style="rounded=0;whiteSpace=wrap;html=1;" vertex="1" parent="1">
          <mxGeometry x="185" y="460" width="120" height="60" as="geometry" />
        </mxCell>
        <mxCell id="F3-806QNRaQVextch-wQ-59" style="edgeStyle=orthogonalEdgeStyle;rounded=0;orthogonalLoop=1;jettySize=auto;html=1;exitX=0.25;exitY=1;exitDx=0;exitDy=0;entryX=0.59;entryY=-0.05;entryDx=0;entryDy=0;entryPerimeter=0;" edge="1" parent="1" source="F3-806QNRaQVextch-wQ-55" target="dGLbKsDwyPdyKZs4tSeU-16">
          <mxGeometry relative="1" as="geometry" />
        </mxCell>
        <mxCell id="F3-806QNRaQVextch-wQ-60" style="edgeStyle=orthogonalEdgeStyle;rounded=0;orthogonalLoop=1;jettySize=auto;html=1;exitX=0.5;exitY=1;exitDx=0;exitDy=0;entryX=0.35;entryY=0.075;entryDx=0;entryDy=0;entryPerimeter=0;" edge="1" parent="1" source="F3-806QNRaQVextch-wQ-55" target="dGLbKsDwyPdyKZs4tSeU-17">
          <mxGeometry relative="1" as="geometry" />
        </mxCell>
        <mxCell id="F3-806QNRaQVextch-wQ-64" style="edgeStyle=orthogonalEdgeStyle;rounded=0;orthogonalLoop=1;jettySize=auto;html=1;exitX=0;exitY=0.5;exitDx=0;exitDy=0;entryX=1.01;entryY=0.7;entryDx=0;entryDy=0;entryPerimeter=0;" edge="1" parent="1" source="F3-806QNRaQVextch-wQ-56" target="dGLbKsDwyPdyKZs4tSeU-6">
          <mxGeometry relative="1" as="geometry" />
        </mxCell>
        <mxCell id="F3-806QNRaQVextch-wQ-65" style="edgeStyle=orthogonalEdgeStyle;rounded=0;orthogonalLoop=1;jettySize=auto;html=1;exitX=0.25;exitY=1;exitDx=0;exitDy=0;entryX=0.991;entryY=0.68;entryDx=0;entryDy=0;entryPerimeter=0;" edge="1" parent="1" source="F3-806QNRaQVextch-wQ-56" target="F3-806QNRaQVextch-wQ-1">
          <mxGeometry relative="1" as="geometry" />
        </mxCell>
        <mxCell id="F3-806QNRaQVextch-wQ-69" style="edgeStyle=orthogonalEdgeStyle;rounded=0;orthogonalLoop=1;jettySize=auto;html=1;exitX=1;exitY=1;exitDx=0;exitDy=0;entryX=0.5;entryY=0;entryDx=0;entryDy=0;" edge="1" parent="1" source="F3-806QNRaQVextch-wQ-66" target="F3-806QNRaQVextch-wQ-67">
          <mxGeometry relative="1" as="geometry" />
        </mxCell>
        <mxCell id="F3-806QNRaQVextch-wQ-66" value="se guarda" style="rhombus;whiteSpace=wrap;html=1;" vertex="1" parent="1">
          <mxGeometry x="600" y="460" width="130" height="60" as="geometry" />
        </mxCell>
        <mxCell id="F3-806QNRaQVextch-wQ-74" style="edgeStyle=orthogonalEdgeStyle;rounded=0;orthogonalLoop=1;jettySize=auto;html=1;exitX=0.75;exitY=1;exitDx=0;exitDy=0;entryX=0.5;entryY=0;entryDx=0;entryDy=0;" edge="1" parent="1" source="F3-806QNRaQVextch-wQ-67" target="F3-806QNRaQVextch-wQ-71">
          <mxGeometry relative="1" as="geometry" />
        </mxCell>
        <mxCell id="F3-806QNRaQVextch-wQ-67" value="Almacen" style="rounded=0;whiteSpace=wrap;html=1;" vertex="1" parent="1">
          <mxGeometry x="660" y="550" width="110" height="55" as="geometry" />
        </mxCell>
        <mxCell id="F3-806QNRaQVextch-wQ-71" value="Precio" style="ellipse;whiteSpace=wrap;html=1;" vertex="1" parent="1">
          <mxGeometry x="720" y="650" width="107" height="50" as="geometry" />
        </mxCell>
        <mxCell id="F3-806QNRaQVextch-wQ-72" value="Nº Producto" style="ellipse;whiteSpace=wrap;html=1;" vertex="1" parent="1">
          <mxGeometry x="600" y="650" width="100" height="50" as="geometry" />
        </mxCell>
        <mxCell id="F3-806QNRaQVextch-wQ-73" style="edgeStyle=orthogonalEdgeStyle;rounded=0;orthogonalLoop=1;jettySize=auto;html=1;exitX=0.25;exitY=1;exitDx=0;exitDy=0;entryX=0.69;entryY=0;entryDx=0;entryDy=0;entryPerimeter=0;" edge="1" parent="1" source="F3-806QNRaQVextch-wQ-67" target="F3-806QNRaQVextch-wQ-72">
          <mxGeometry relative="1" as="geometry" />
        </mxCell>
      </root>
    </mxGraphModel>
  </diagram>
</mxfile>
